<svg width="208" height="22" viewBox="0 0 208 22" fill="none" xmlns="http://www.w3.org/2000/svg">
<path d="M21.157 0.223862H36.2683V3.22976H24.1625V9.89778H36.0352V12.7242H24.1625V18.7702H36.2683V21.7744H21.157V0.223862ZM57.6155 21.7744H60.621V0.223862H57.6155V21.7744ZM104.491 0.223862H101.484V16.6188C101.484 16.6307 101.484 16.641 101.484 16.6529C101.472 16.6359 101.46 16.6205 101.449 16.6051L89.6261 0.223862H86.7665V21.7744H89.772V5.61706C89.772 5.58288 89.772 5.54699 89.772 5.51111C89.7938 5.54187 89.8156 5.57263 89.8374 5.60168L101.631 21.7744H104.491V0.223862ZM140.389 16.6171C140.389 16.629 140.389 16.641 140.389 16.6529C140.377 16.6359 140.366 16.6188 140.354 16.6034L128.579 0.292217L128.528 0.223862H125.669V21.7744H128.674V5.61364C128.674 5.57946 128.674 5.54358 128.674 5.50769C128.698 5.54016 128.719 5.57092 128.741 5.59997L140.535 21.7727H143.393V0.223862H140.388V16.6171H140.389ZM146.67 21.7727H149.676V0.223862H146.67V21.7744V21.7727ZM185.864 13.3856L185.861 13.3993L185.837 13.5035C185.051 16.9247 182.532 18.8864 178.926 18.8864C174.513 18.8864 171.88 15.9386 171.88 10.9983C171.88 6.05795 174.513 3.10844 178.926 3.10844C182.525 3.10844 184.98 5.02237 185.839 8.49821L185.861 8.58707L185.864 8.59904L185.889 8.59391L188.816 7.9753L188.736 7.61985C187.674 2.88799 184.11 0.116203 178.956 0.0153798H178.781C172.67 0.0153798 168.873 4.22262 168.873 10.9983C168.873 17.774 172.67 21.9795 178.781 21.9795H178.964C184.112 21.8787 187.674 19.1069 188.736 14.375L188.818 14.0127L185.864 13.3856ZM204.576 0.223862V9.45176H193.546V0.223862H190.54V21.7744H193.546V12.5158H204.576V21.7744H207.584V0.223862H204.576ZM168.983 0.223862H152.428V3.22806H159.217V21.7744H162.223V3.22635H168.983V0.223862ZM19.1008 10.9983C19.1008 14.4246 18.0039 17.2357 15.9292 19.1291C14.034 20.8585 11.4126 21.7727 8.35172 21.7727H0.416992V0.223862H8.35004C11.4109 0.223862 14.0323 1.13811 15.9275 2.86748C18.0022 4.76091 19.0991 7.572 19.0991 10.9983H19.1008ZM16.0651 10.9983C16.0651 7.24219 14.0625 3.22806 8.43893 3.22806H3.45268V18.7685H8.43893C10.2285 18.7685 16.0651 18.208 16.0651 10.9966V10.9983ZM46.8463 8.90151C44.0572 8.53239 41.6504 8.21283 41.6504 6.45953C41.6504 4.26534 43.4785 3.0059 46.6652 3.0059C49.5549 3.0059 51.1348 4.0842 51.3613 6.20833L51.4099 6.67143L54.3181 6.05282L54.2762 5.67003C53.8955 2.2728 50.9805 0.100823 46.6618 0.00170887H46.4304C44.2853 0.00170887 42.3464 0.581016 40.9695 1.63197C39.4449 2.79571 38.6399 4.47553 38.6399 6.48858C38.6399 10.6753 42.7993 11.2734 46.4689 11.8015C47.3629 11.9296 48.2602 12.0527 49.1407 12.2509C49.8401 12.4081 50.5663 12.608 51.1734 13.0079C52.5957 13.9444 52.2099 15.9506 51.3411 17.1451C50.9537 17.6766 50.4321 18.0935 49.8468 18.3755C48.235 19.1479 46.209 19.1906 44.5134 18.666C43.5725 18.3755 42.7221 17.8611 42.058 17.1195C41.6739 16.6905 41.3452 16.1728 41.0768 15.5781L40.9644 15.3337H37.7493C37.7493 15.3337 37.917 15.8993 37.9304 15.9284C37.9858 16.101 38.0495 16.277 38.1233 16.465C38.1837 16.6222 38.2491 16.7777 38.3162 16.9264C39.8005 20.2467 42.6852 22.0017 46.6585 22.0017C46.7524 22.0017 46.8446 22.0017 46.9352 21.9983C52.7835 21.8821 54.454 18.5139 54.9286 16.5231C54.9387 16.4906 54.9454 16.4564 54.9504 16.4325C54.9739 16.3317 54.994 16.2291 55.0108 16.1403C55.0209 16.0873 55.0309 16.0326 55.041 15.9762C55.0544 15.8874 55.0695 15.8002 55.0796 15.7165C55.1232 15.3781 55.1467 15.0398 55.1467 14.7082C55.1467 10.0037 50.5445 9.39366 46.8446 8.90492M84.1182 12.5534C84.1182 12.5414 84.1182 12.5311 84.1165 12.5192C84.0981 12.1552 84.031 11.8339 83.9203 11.5554C83.5899 10.7283 82.8637 10.2857 81.7953 10.2857H72.6446V12.9327H78.0166V14.7236C78.0166 14.886 78.0083 15.0517 77.9915 15.2158L77.9881 15.2448C77.9848 15.2739 77.9814 15.3029 77.9764 15.332C77.8825 15.9865 77.6007 16.6393 77.2317 17.1451C77.0925 17.3382 76.9349 17.5159 76.7621 17.6766C76.4586 17.9602 76.1114 18.1961 75.7374 18.3755C74.1256 19.1479 72.0996 19.1906 70.4039 18.666C70.0417 18.5532 69.6911 18.408 69.3607 18.2268C69.3104 18.2012 69.2584 18.1721 69.2081 18.1431C69.1494 18.1089 69.0924 18.0747 69.0354 18.0371C68.6379 17.7842 68.2722 17.4783 67.9502 17.1195C67.6416 16.7743 67.3666 16.3727 67.1334 15.9181C67.1318 15.9147 67.1301 15.9113 67.1284 15.9079C67.0731 15.8002 67.0194 15.6908 66.9691 15.5781L66.855 15.332H66.8517C66.8248 15.2619 66.7947 15.1936 66.7678 15.1201C66.6957 14.9304 66.6286 14.7339 66.5699 14.5322C66.4928 14.2759 66.424 14.0093 66.3653 13.7342C66.1875 12.9003 66.0986 11.986 66.0986 11.0034C66.0986 8.40764 66.8584 6.1451 68.1817 4.7968C69.6509 3.3323 72.3159 3.02641 73.7818 3.02641C77.4196 3.02641 79.8414 4.92155 80.7857 8.50847L80.8058 8.58366L83.704 7.97017L83.6218 7.61985C82.4863 2.81622 78.9928 0.117912 73.7835 0.0187976H73.6107C66.4357 0.0187976 63.0965 4.22604 63.0965 11C63.0965 11.6579 63.1267 12.2936 63.1887 12.902C63.1887 12.902 63.1938 12.9413 63.2021 13.013C63.2474 13.3822 63.4068 14.5852 63.6416 15.3286C63.6416 15.3286 63.8093 15.8959 63.8227 15.9233C63.878 16.0976 63.9418 16.2736 64.0156 16.4598C64.0776 16.6188 64.1414 16.7726 64.2084 16.9212C64.4869 17.5433 64.8156 18.1106 65.1896 18.6216C65.2181 18.6626 65.2483 18.7002 65.2768 18.7395C65.2902 18.7583 65.3036 18.7754 65.3171 18.7924C65.3338 18.813 65.3506 18.8335 65.3674 18.854C65.4194 18.9223 65.473 18.9873 65.5284 19.0522L65.577 19.1086C65.634 19.1718 65.6894 19.235 65.7431 19.2949C65.7514 19.3051 65.7615 19.3154 65.7716 19.3256C65.8353 19.3957 65.9007 19.464 65.9678 19.529C66.0148 19.5785 66.0617 19.6264 66.1104 19.6691C66.1624 19.7187 66.2177 19.7665 66.2714 19.8161C66.2814 19.8246 66.2898 19.8331 66.2965 19.84C66.3016 19.8451 66.3083 19.8502 66.315 19.8554L66.3183 19.8588C66.3418 19.8793 66.3653 19.8981 66.3871 19.9169C66.419 19.9442 66.4525 19.9733 66.4844 20.0006C66.4944 20.0075 66.5028 20.016 66.5112 20.0211C68.0609 21.3216 70.0953 21.9966 72.5507 21.9966C72.6446 21.9966 72.7369 21.9966 72.8275 21.9932C72.9046 21.9915 72.9818 21.9897 73.0572 21.988C73.1595 21.9846 73.2602 21.9795 73.3642 21.9727C77.5588 21.7385 79.454 19.7511 80.3093 17.9705C80.3714 17.8406 80.4268 17.7124 80.4787 17.586C80.633 17.2066 80.7421 16.8443 80.8209 16.5179C80.8444 16.424 80.8628 16.3317 80.8813 16.2377C80.888 16.2086 80.8947 16.1813 80.8997 16.1522C81.0255 15.4619 81.0205 14.7578 81.0138 14.0538C81.0121 13.888 81.0104 13.7205 81.0104 13.5548V12.9293H81.527V21.7744H84.1249V12.7448C84.1249 12.6781 84.1233 12.6132 84.1199 12.5499L84.1182 12.5534ZM115.319 8.90151C112.53 8.53239 110.123 8.21283 110.123 6.45953C110.123 4.26534 111.951 3.0059 115.138 3.0059C118.027 3.0059 119.607 4.0842 119.834 6.20833L119.882 6.67143L122.791 6.05282L122.749 5.67003C122.371 2.27109 119.456 0.0991145 115.138 0H114.906C112.761 0 110.822 0.579307 109.445 1.63026C107.921 2.794 107.116 4.47382 107.116 6.48687C107.116 10.6736 111.275 11.2717 114.945 11.7998C115.839 11.9279 116.736 12.051 117.616 12.2492C118.316 12.4064 119.042 12.6063 119.649 13.0062C121.071 13.9427 120.686 15.9489 119.817 17.1434C119.43 17.6748 118.908 18.0918 118.323 18.3738C116.711 19.1462 114.685 19.1889 112.989 18.6643C112.048 18.3738 111.198 17.8594 110.534 17.1178C110.15 16.6888 109.821 16.171 109.553 15.5764L109.44 15.332H106.225C106.225 15.332 106.393 15.8976 106.406 15.9267C106.462 16.0993 106.525 16.2753 106.599 16.4633C106.659 16.6205 106.725 16.776 106.792 16.9247C108.276 20.245 111.161 22 115.134 22C115.228 22 115.32 22 115.411 21.9966C121.259 21.8804 122.93 18.5122 123.404 16.5214C123.414 16.4889 123.421 16.4547 123.426 16.4308C123.45 16.33 123.47 16.2274 123.487 16.1386C123.497 16.0856 123.507 16.0309 123.517 15.9745C123.53 15.8857 123.545 15.7985 123.555 15.7148C123.599 15.3764 123.622 15.0381 123.622 14.7065C123.622 10.002 119.02 9.39195 115.32 8.90321" fill="white"/>
</svg>
